<svg xmlns="http://www.w3.org/2000/svg" width="800" height="480" viewBox="0 0 800 480" font-family="Helvetica, Arial, sans-serif">
  <!-- e-ink 1-bit: solo negro sobre blanco -->
  <rect x="0" y="0" width="800" height="480" fill="#ffffff"/>
  <rect x="6" y="6" width="788" height="468" rx="6" fill="none" stroke="#000" stroke-width="3"/>

  <!-- ===== Encabezado ===== -->
  <text x="24" y="44" font-size="30" font-weight="bold">María José Selva</text>
  <text x="24" y="65" font-size="14">Pre-Sales · GBM Nicaragua</text>
  <text x="776" y="36" font-size="17" font-weight="bold" text-anchor="end">SEMANA 22</text>
  <text x="776" y="58" font-size="14" text-anchor="end">lun 22 jun 2026</text>
  <line x1="16" y1="78" x2="784" y2="78" stroke="#000" stroke-width="2"/>

  <!-- divisor de columnas -->
  <line x1="474" y1="88" x2="474" y2="446" stroke="#000" stroke-width="1"/>

  <!-- ===== Columna izquierda: lead measures ===== -->
  <text x="24" y="104" font-size="15" font-weight="bold" letter-spacing="1.5">MIS LEAD MEASURES</text>

  <!-- WIG 1 -->
  <text x="24" y="130" font-size="16" font-weight="bold">WIG 1 · Smart User 500</text>
  <!-- estado general: riesgo (medio) -->
  <circle cx="452" cy="125" r="8" fill="#fff" stroke="#000" stroke-width="1.6"/>
  <path d="M452,117 A8,8 0 0,0 452,133 Z" fill="#000"/>

  <!-- L1 atrasado -->
  <circle cx="36" cy="150" r="7" fill="#fff" stroke="#000" stroke-width="1.6"/>
  <text x="52" y="154" font-size="13">L1 · Cartas de asignación firmadas</text>
  <text x="452" y="154" font-size="13" font-weight="bold" text-anchor="end">14 / 20</text>
  <rect x="52" y="160" width="300" height="7" fill="#fff" stroke="#000" stroke-width="1"/>
  <rect x="52" y="160" width="210" height="7" fill="#000"/>

  <!-- L2 en meta -->
  <circle cx="36" cy="186" r="7" fill="#000"/>
  <text x="52" y="190" font-size="13">L2 · Demos / POCs activos</text>
  <text x="452" y="190" font-size="13" font-weight="bold" text-anchor="end">2 / 2</text>
  <rect x="52" y="196" width="300" height="7" fill="#fff" stroke="#000" stroke-width="1"/>
  <rect x="52" y="196" width="300" height="7" fill="#000"/>

  <!-- WIG 5 -->
  <text x="24" y="234" font-size="16" font-weight="bold">WIG 5 · MV Datacenter</text>
  <circle cx="452" cy="229" r="8" fill="#000"/>

  <!-- L1 en meta -->
  <circle cx="36" cy="254" r="7" fill="#000"/>
  <text x="52" y="258" font-size="13">L1 · Propuestas de servicios DC</text>
  <text x="452" y="258" font-size="13" font-weight="bold" text-anchor="end">3 / 2</text>
  <rect x="52" y="264" width="300" height="7" fill="#fff" stroke="#000" stroke-width="1"/>
  <rect x="52" y="264" width="300" height="7" fill="#000"/>

  <!-- L2 en meta -->
  <circle cx="36" cy="290" r="7" fill="#000"/>
  <text x="52" y="294" font-size="13">L2 · Workloads aprovisionados</text>
  <text x="452" y="294" font-size="13" font-weight="bold" text-anchor="end">1 / 1</text>
  <rect x="52" y="300" width="300" height="7" fill="#fff" stroke="#000" stroke-width="1"/>
  <rect x="52" y="300" width="300" height="7" fill="#000"/>

  <!-- ===== Columna derecha: compromisos ===== -->
  <text x="486" y="104" font-size="14" font-weight="bold" letter-spacing="0.6">MIS COMPROMISOS · ESTA SEMANA</text>

  <!-- item 1 (hecho) -->
  <rect x="490" y="118" width="18" height="18" rx="2" fill="#fff" stroke="#000" stroke-width="1.6"/>
  <polyline points="493,127 499,133 506,120" fill="none" stroke="#000" stroke-width="2.2"/>
  <text x="520" y="126" font-size="13.5">Cotizar 30 equipos del pipeline</text>
  <text x="520" y="144" font-size="13.5">Smart User</text>
  <text x="520" y="161" font-size="11" letter-spacing="0.5">WIG 1 · L4 · HECHO</text>

  <!-- item 2 -->
  <rect x="490" y="182" width="18" height="18" rx="2" fill="#fff" stroke="#000" stroke-width="1.6"/>
  <text x="520" y="190" font-size="13.5">Cerrar 5 cartas de asignación</text>
  <text x="520" y="208" font-size="13.5">con Promerica</text>
  <text x="520" y="225" font-size="11" letter-spacing="0.5">WIG 1 · L1 · PENDIENTE</text>

  <!-- item 3 -->
  <rect x="490" y="246" width="18" height="18" rx="2" fill="#fff" stroke="#000" stroke-width="1.6"/>
  <text x="520" y="254" font-size="13.5">Presentar propuesta de servicios</text>
  <text x="520" y="272" font-size="13.5">DC a Banpro</text>
  <text x="520" y="289" font-size="11" letter-spacing="0.5">WIG 5 · L1 · PENDIENTE</text>

  <!-- ===== Pie ===== -->
  <line x1="16" y1="452" x2="784" y2="452" stroke="#000" stroke-width="1"/>
  <text x="24" y="468" font-size="11">Actualizado lun 8:00 · vía PGX (LAN)</text>
  <g font-size="11">
    <circle cx="556" cy="464" r="6" fill="#000"/>
    <text x="566" y="468">en meta</text>
    <circle cx="636" cy="464" r="6" fill="#fff" stroke="#000" stroke-width="1.4"/>
    <path d="M636,458 A6,6 0 0,0 636,470 Z" fill="#000"/>
    <text x="646" y="468">riesgo</text>
    <circle cx="710" cy="464" r="6" fill="#fff" stroke="#000" stroke-width="1.4"/>
    <text x="720" y="468">atrasado</text>
  </g>
</svg>
