<svg xmlns="http://www.w3.org/2000/svg" width="800" height="480" viewBox="0 0 800 480" font-family="Helvetica, Arial, sans-serif">
  <rect x="0" y="0" width="800" height="480" fill="#ffffff"/>
  <rect x="6" y="6" width="788" height="468" rx="6" fill="none" stroke="#000" stroke-width="3"/>

  <!-- Encabezado -->
  <text x="24" y="44" font-size="28" font-weight="bold">Mi equipo · WIG 1</text>
  <text x="24" y="65" font-size="14">Smart User 500 · Pre-Sales, Del - DEX</text>
  <text x="776" y="36" font-size="17" font-weight="bold" text-anchor="end">SEMANA 22</text>
  <text x="776" y="58" font-size="14" text-anchor="end">lun 22 jun 2026</text>
  <line x1="16" y1="78" x2="784" y2="78" stroke="#000" stroke-width="2"/>
  <line x1="474" y1="88" x2="474" y2="446" stroke="#000" stroke-width="1"/>

  <!-- Lag acumulado (izquierda) -->
  <text x="24" y="106" font-size="13" font-weight="bold" letter-spacing="1.2">EQUIPOS COLOCADOS (ACUMULADO)</text>
  <text x="24" y="152" font-size="42" font-weight="bold">142 / 500</text>
  <circle cx="430" cy="140" r="9" fill="#fff" stroke="#000" stroke-width="1.8"/>
  <path d="M430,131 A9,9 0 0,0 430,149 Z" fill="#000"/>
  <text x="24" y="176" font-size="14">28% de la meta · plan a la sem. 22: 180 → 79%</text>
  <rect x="24" y="186" width="420" height="14" fill="#fff" stroke="#000" stroke-width="1.4"/>
  <rect x="24" y="186" width="118" height="14" fill="#000"/>

  <!-- Tendencia 8 semanas -->
  <text x="24" y="232" font-size="13" font-weight="bold" letter-spacing="1.2">ÚLTIMAS 8 SEMANAS (ACUM.)</text>
  <g fill="#000">
    <rect x="28"  y="356" width="40" height="56"/>
    <rect x="80"  y="344" width="40" height="68"/>
    <rect x="132" y="332" width="40" height="80"/>
    <rect x="184" y="324" width="40" height="88"/>
    <rect x="236" y="318" width="40" height="94"/>
    <rect x="288" y="312" width="40" height="100"/>
    <rect x="340" y="308" width="40" height="104"/>
    <rect x="392" y="302" width="40" height="110"/>
  </g>
  <line x1="24" y1="412" x2="444" y2="412" stroke="#000" stroke-width="1.4"/>
  <text x="28" y="428" font-size="11">s15</text>
  <text x="392" y="428" font-size="11">s22 · 142</text>

  <!-- Compromisos del equipo (derecha) -->
  <text x="486" y="106" font-size="13" font-weight="bold" letter-spacing="1.2">COMPROMISOS · SEMANA 22</text>
  <text x="486" y="148" font-size="32" font-weight="bold">5 / 7</text>
  <text x="566" y="148" font-size="16">hechos (71%)</text>
  <rect x="486" y="160" width="298" height="14" fill="#fff" stroke="#000" stroke-width="1.4"/>
  <rect x="486" y="160" width="213" height="14" fill="#000"/>

  <text x="486" y="206" font-size="13" font-weight="bold" letter-spacing="1.2">POR PERSONA</text>
  <text x="486" y="232" font-size="14">María J. Selva</text>
  <g><circle cx="700" cy="227" r="6" fill="#000"/><circle cx="720" cy="227" r="6" fill="#000"/><circle cx="740" cy="227" r="6" fill="#fff" stroke="#000" stroke-width="1.4"/></g>
  <text x="770" y="232" font-size="13" text-anchor="end">2/3</text>
  <text x="486" y="258" font-size="14">Equipo Pre-Sales (4)</text>
  <g><circle cx="700" cy="253" r="6" fill="#000"/><circle cx="720" cy="253" r="6" fill="#000"/><circle cx="740" cy="253" r="6" fill="#000"/></g>
  <text x="770" y="258" font-size="13" text-anchor="end">3/4</text>

  <text x="486" y="298" font-size="13" font-weight="bold" letter-spacing="1.2">APUESTA PRINCIPAL</text>
  <circle cx="492" cy="320" r="6" fill="#fff" stroke="#000" stroke-width="1.4"/>
  <text x="508" y="324" font-size="13.5">L1 · Cartas firmadas</text>
  <text x="770" y="324" font-size="13.5" font-weight="bold" text-anchor="end">14 / 20</text>
  <circle cx="492" cy="344" r="6" fill="#000"/>
  <text x="508" y="348" font-size="13.5">L2 · Demos / POCs activos</text>
  <text x="770" y="348" font-size="13.5" font-weight="bold" text-anchor="end">2 / 2</text>

  <!-- Pie -->
  <line x1="16" y1="452" x2="784" y2="452" stroke="#000" stroke-width="1"/>
  <text x="24" y="468" font-size="11">Actualizado lun 8:00 · vía PGX (LAN)</text>
  <text x="776" y="468" font-size="11" text-anchor="end">Dueño: por asignar · cadencia lunes 9:00</text>
</svg>
